<svg width="61" height="47" viewBox="0 0 61 47" fill="none" xmlns="http://www.w3.org/2000/svg">
<path d="M58.0781 0V3.44531C53.2031 5.22656 49.3828 8.03906 46.6172 11.8828C43.8516 15.6797 42.4688 19.6406 42.4688 23.7656C42.4688 24.6562 42.6094 25.3125 42.8906 25.7344C43.0781 26.0156 43.2891 26.1562 43.5234 26.1562C43.7578 26.1562 44.1094 25.9922 44.5781 25.6641C46.0781 24.5859 47.9766 24.0469 50.2734 24.0469C52.9453 24.0469 55.3125 25.1484 57.375 27.3516C59.4375 29.5078 60.4688 32.0859 60.4688 35.0859C60.4688 38.2266 59.2734 40.9922 56.8828 43.3828C54.5391 45.7734 51.6797 46.9688 48.3047 46.9688C44.3672 46.9688 40.9688 45.3516 38.1094 42.1172C35.25 38.8828 33.8203 34.5469 33.8203 29.1094C33.8203 22.7812 35.7656 17.1094 39.6562 12.0938C43.5469 7.07812 49.6875 3.04688 58.0781 0ZM24.2578 0V3.44531C19.3828 5.22656 15.5625 8.03906 12.7969 11.8828C10.0312 15.6797 8.64844 19.6406 8.64844 23.7656C8.64844 24.6562 8.78906 25.3125 9.07031 25.7344C9.25781 26.0156 9.46875 26.1562 9.70312 26.1562C9.9375 26.1562 10.2891 25.9922 10.7578 25.6641C12.2578 24.5859 14.1562 24.0469 16.4531 24.0469C19.125 24.0469 21.4922 25.1484 23.5547 27.3516C25.6172 29.5078 26.6484 32.0859 26.6484 35.0859C26.6484 38.2266 25.4531 40.9922 23.0625 43.3828C20.7188 45.7734 17.8594 46.9688 14.4844 46.9688C10.5469 46.9688 7.14844 45.3516 4.28906 42.1172C1.42969 38.8828 0 34.5469 0 29.1094C0 22.7812 1.94531 17.1094 5.83594 12.0938C9.72656 7.07812 15.8672 3.04688 24.2578 0Z" fill="#5F6D2E"/>
</svg>
